<mxfile host="app.diagrams.net" modified="2023-10-11T20:20:44.660Z" agent="Mozilla/5.0 (X11; Ubuntu; Linux x86_64; rv:109.0) Gecko/20100101 Firefox/113.0" etag="GLfHHaDR7XcbLlx-LTIw" version="22.0.4" type="device">
  <diagram name="Page-1" id="t29cudPlwcvxk3HDNEwc">
    <mxGraphModel dx="1434" dy="761" grid="1" gridSize="10" guides="1" tooltips="1" connect="1" arrows="1" fold="1" page="1" pageScale="1" pageWidth="827" pageHeight="1169" math="0" shadow="0">
      <root>
        <mxCell id="0" />
        <mxCell id="1" parent="0" />
        <mxCell id="t0fNAEPaN_b5v2oKE2S5-1" value="&lt;div&gt;AA&lt;/div&gt;&lt;div&gt;0&lt;br&gt;&lt;/div&gt;" style="ellipse;whiteSpace=wrap;html=1;" parent="1" vertex="1">
          <mxGeometry x="281" y="390" width="50" height="50" as="geometry" />
        </mxCell>
        <mxCell id="t0fNAEPaN_b5v2oKE2S5-2" value="&lt;div&gt;BB&lt;/div&gt;&lt;div&gt;13&lt;br&gt;&lt;/div&gt;" style="ellipse;whiteSpace=wrap;html=1;" parent="1" vertex="1">
          <mxGeometry x="250" y="230" width="50" height="50" as="geometry" />
        </mxCell>
        <mxCell id="t0fNAEPaN_b5v2oKE2S5-3" value="&lt;div&gt;DD&lt;/div&gt;&lt;div&gt;20&lt;br&gt;&lt;/div&gt;" style="ellipse;whiteSpace=wrap;html=1;" parent="1" vertex="1">
          <mxGeometry x="130" y="470" width="50" height="50" as="geometry" />
        </mxCell>
        <mxCell id="t0fNAEPaN_b5v2oKE2S5-4" value="&lt;div&gt;II&lt;/div&gt;&lt;div&gt;0&lt;br&gt;&lt;/div&gt;" style="ellipse;whiteSpace=wrap;html=1;" parent="1" vertex="1">
          <mxGeometry x="449" y="330" width="50" height="50" as="geometry" />
        </mxCell>
        <mxCell id="t0fNAEPaN_b5v2oKE2S5-5" value="" style="endArrow=none;html=1;rounded=0;exitX=0.5;exitY=0;exitDx=0;exitDy=0;entryX=0.5;entryY=1;entryDx=0;entryDy=0;" parent="1" source="t0fNAEPaN_b5v2oKE2S5-1" target="t0fNAEPaN_b5v2oKE2S5-2" edge="1">
          <mxGeometry width="50" height="50" relative="1" as="geometry">
            <mxPoint x="320" y="420" as="sourcePoint" />
            <mxPoint x="370" y="370" as="targetPoint" />
          </mxGeometry>
        </mxCell>
        <mxCell id="t0fNAEPaN_b5v2oKE2S5-6" value="" style="endArrow=none;html=1;rounded=0;exitX=0;exitY=1;exitDx=0;exitDy=0;entryX=1;entryY=0;entryDx=0;entryDy=0;" parent="1" source="t0fNAEPaN_b5v2oKE2S5-1" target="t0fNAEPaN_b5v2oKE2S5-3" edge="1">
          <mxGeometry width="50" height="50" relative="1" as="geometry">
            <mxPoint x="390" y="470" as="sourcePoint" />
            <mxPoint x="360" y="360" as="targetPoint" />
          </mxGeometry>
        </mxCell>
        <mxCell id="t0fNAEPaN_b5v2oKE2S5-7" value="" style="endArrow=none;html=1;rounded=0;exitX=1;exitY=0.5;exitDx=0;exitDy=0;entryX=0;entryY=0.5;entryDx=0;entryDy=0;" parent="1" source="t0fNAEPaN_b5v2oKE2S5-1" target="t0fNAEPaN_b5v2oKE2S5-4" edge="1">
          <mxGeometry width="50" height="50" relative="1" as="geometry">
            <mxPoint x="380.32" y="514" as="sourcePoint" />
            <mxPoint x="462.32" y="410" as="targetPoint" />
          </mxGeometry>
        </mxCell>
        <mxCell id="t0fNAEPaN_b5v2oKE2S5-8" value="&lt;div&gt;CC&lt;/div&gt;&lt;div&gt;2&lt;/div&gt;" style="ellipse;whiteSpace=wrap;html=1;" parent="1" vertex="1">
          <mxGeometry x="130" y="330" width="50" height="50" as="geometry" />
        </mxCell>
        <mxCell id="t0fNAEPaN_b5v2oKE2S5-10" value="&lt;div&gt;EE&lt;/div&gt;&lt;div&gt;3&lt;br&gt;&lt;/div&gt;" style="ellipse;whiteSpace=wrap;html=1;" parent="1" vertex="1">
          <mxGeometry x="230" y="560" width="50" height="50" as="geometry" />
        </mxCell>
        <mxCell id="t0fNAEPaN_b5v2oKE2S5-11" value="&lt;div&gt;FF&lt;/div&gt;&lt;div&gt;0&lt;br&gt;&lt;/div&gt;" style="ellipse;whiteSpace=wrap;html=1;" parent="1" vertex="1">
          <mxGeometry x="110" y="630" width="50" height="50" as="geometry" />
        </mxCell>
        <mxCell id="t0fNAEPaN_b5v2oKE2S5-12" value="&lt;div&gt;GG&lt;/div&gt;&lt;div&gt;0&lt;br&gt;&lt;/div&gt;" style="ellipse;whiteSpace=wrap;html=1;" parent="1" vertex="1">
          <mxGeometry x="250" y="690" width="50" height="50" as="geometry" />
        </mxCell>
        <mxCell id="t0fNAEPaN_b5v2oKE2S5-13" value="&lt;div&gt;HH&lt;/div&gt;&lt;div&gt;22&lt;br&gt;&lt;/div&gt;" style="ellipse;whiteSpace=wrap;html=1;" parent="1" vertex="1">
          <mxGeometry x="380" y="610" width="50" height="50" as="geometry" />
        </mxCell>
        <mxCell id="t0fNAEPaN_b5v2oKE2S5-14" value="&lt;div&gt;JJ&lt;/div&gt;&lt;div&gt;21&lt;br&gt;&lt;/div&gt;" style="ellipse;whiteSpace=wrap;html=1;" parent="1" vertex="1">
          <mxGeometry x="449" y="450" width="50" height="50" as="geometry" />
        </mxCell>
        <mxCell id="t0fNAEPaN_b5v2oKE2S5-15" value="" style="endArrow=none;html=1;rounded=0;entryX=0;entryY=1;entryDx=0;entryDy=0;exitX=1;exitY=0;exitDx=0;exitDy=0;" parent="1" source="t0fNAEPaN_b5v2oKE2S5-8" target="t0fNAEPaN_b5v2oKE2S5-2" edge="1">
          <mxGeometry width="50" height="50" relative="1" as="geometry">
            <mxPoint x="360" y="440" as="sourcePoint" />
            <mxPoint x="410" y="390" as="targetPoint" />
          </mxGeometry>
        </mxCell>
        <mxCell id="t0fNAEPaN_b5v2oKE2S5-17" value="" style="endArrow=none;html=1;rounded=0;exitX=0.5;exitY=0;exitDx=0;exitDy=0;entryX=0.5;entryY=1;entryDx=0;entryDy=0;" parent="1" source="t0fNAEPaN_b5v2oKE2S5-3" target="t0fNAEPaN_b5v2oKE2S5-8" edge="1">
          <mxGeometry width="50" height="50" relative="1" as="geometry">
            <mxPoint x="360" y="440" as="sourcePoint" />
            <mxPoint x="410" y="390" as="targetPoint" />
          </mxGeometry>
        </mxCell>
        <mxCell id="t0fNAEPaN_b5v2oKE2S5-18" value="" style="endArrow=none;html=1;rounded=0;exitX=1;exitY=1;exitDx=0;exitDy=0;entryX=0;entryY=0;entryDx=0;entryDy=0;" parent="1" source="t0fNAEPaN_b5v2oKE2S5-3" target="t0fNAEPaN_b5v2oKE2S5-10" edge="1">
          <mxGeometry width="50" height="50" relative="1" as="geometry">
            <mxPoint x="360" y="440" as="sourcePoint" />
            <mxPoint x="410" y="390" as="targetPoint" />
          </mxGeometry>
        </mxCell>
        <mxCell id="t0fNAEPaN_b5v2oKE2S5-19" value="" style="endArrow=none;html=1;rounded=0;entryX=0;entryY=1;entryDx=0;entryDy=0;exitX=1;exitY=0;exitDx=0;exitDy=0;" parent="1" source="t0fNAEPaN_b5v2oKE2S5-11" target="t0fNAEPaN_b5v2oKE2S5-10" edge="1">
          <mxGeometry width="50" height="50" relative="1" as="geometry">
            <mxPoint x="360" y="440" as="sourcePoint" />
            <mxPoint x="410" y="390" as="targetPoint" />
          </mxGeometry>
        </mxCell>
        <mxCell id="t0fNAEPaN_b5v2oKE2S5-21" value="" style="endArrow=none;html=1;rounded=0;exitX=1;exitY=0.5;exitDx=0;exitDy=0;entryX=0;entryY=0.5;entryDx=0;entryDy=0;" parent="1" source="t0fNAEPaN_b5v2oKE2S5-12" target="t0fNAEPaN_b5v2oKE2S5-13" edge="1">
          <mxGeometry width="50" height="50" relative="1" as="geometry">
            <mxPoint x="360" y="440" as="sourcePoint" />
            <mxPoint x="410" y="390" as="targetPoint" />
          </mxGeometry>
        </mxCell>
        <mxCell id="t0fNAEPaN_b5v2oKE2S5-22" value="" style="endArrow=none;html=1;rounded=0;exitX=1;exitY=1;exitDx=0;exitDy=0;entryX=0;entryY=0.5;entryDx=0;entryDy=0;" parent="1" source="t0fNAEPaN_b5v2oKE2S5-11" target="t0fNAEPaN_b5v2oKE2S5-12" edge="1">
          <mxGeometry width="50" height="50" relative="1" as="geometry">
            <mxPoint x="360" y="440" as="sourcePoint" />
            <mxPoint x="410" y="390" as="targetPoint" />
          </mxGeometry>
        </mxCell>
        <mxCell id="t0fNAEPaN_b5v2oKE2S5-23" value="" style="endArrow=none;html=1;rounded=0;entryX=0.5;entryY=1;entryDx=0;entryDy=0;exitX=0.5;exitY=0;exitDx=0;exitDy=0;" parent="1" source="t0fNAEPaN_b5v2oKE2S5-14" target="t0fNAEPaN_b5v2oKE2S5-4" edge="1">
          <mxGeometry width="50" height="50" relative="1" as="geometry">
            <mxPoint x="360" y="440" as="sourcePoint" />
            <mxPoint x="410" y="390" as="targetPoint" />
          </mxGeometry>
        </mxCell>
      </root>
    </mxGraphModel>
  </diagram>
</mxfile>
